<svg width="31" height="30" viewBox="0 0 31 30" fill="none" xmlns="http://www.w3.org/2000/svg">
<path d="M30.2083 12.0623H29V12H15.5V18H23.9773C22.7405 21.4927 19.4172 24 15.5 24C10.5298 24 6.5 19.9702 6.5 15C6.5 10.0298 10.5298 6 15.5 6C17.7943 6 19.8815 6.8655 21.4708 8.27925L25.7135 4.0365C23.0345 1.53975 19.451 0 15.5 0C7.21625 0 0.5 6.71625 0.5 15C0.5 23.2838 7.21625 30 15.5 30C23.7838 30 30.5 23.2838 30.5 15C30.5 13.9943 30.3965 13.0125 30.2083 12.0623Z" fill="#FFC107"/>
<path d="M2.2296 8.01825L7.15785 11.6325C8.49135 8.331 11.7208 6 15.5 6C17.7943 6 19.8815 6.8655 21.4708 8.27925L25.7135 4.0365C23.0345 1.53975 19.451 0 15.5 0C9.7385 0 4.7421 3.25275 2.2296 8.01825Z" fill="#FF3D00"/>
<path d="M15.5 30C19.3745 30 22.8951 28.5172 25.5569 26.106L20.9144 22.1775C19.3578 23.3613 17.4556 24.0015 15.5 24C11.5985 24 8.28588 21.5122 7.03788 18.0405L2.14638 21.8092C4.62888 26.667 9.67025 30 15.5 30Z" fill="#0E9D57"/>
<path d="M30.2083 12.0623H29V12H15.5V18H23.9773C23.3857 19.6623 22.3201 21.1149 20.9121 22.1783L20.9144 22.1775L25.5569 26.106C25.2284 26.4045 30.5 22.5 30.5 15C30.5 13.9943 30.3965 13.0125 30.2083 12.0623Z" fill="#1976D2"/>
</svg>
